<?xml version="1.0" encoding="utf-8"?>
<!-- Generator: Adobe Illustrator 27.7.0, SVG Export Plug-In . SVG Version: 6.00 Build 0)  -->
<svg version="1.1" id="mdi-database-eye" xmlns="http://www.w3.org/2000/svg" xmlns:xlink="http://www.w3.org/1999/xlink" x="0px"
	 y="0px" viewBox="0 0 512 512" style="enable-background:new 0 0 512 512;" xml:space="preserve">
<g>
	<path d="M12.8,230.4v-76.8c0,56.32,92.16,102.4,204.8,102.4s204.8-46.08,204.8-102.4v76.8c0,12.8-5.12,23.04-12.8,35.84
		c-20.48-7.68-40.96-10.24-64-10.24c-64,0-125.44,28.16-163.84,74.24C84.48,322.56,12.8,281.6,12.8,230.4 M217.6,204.8
		c112.64,0,204.8-46.08,204.8-102.4C422.4,46.08,330.24,0,217.6,0S12.8,46.08,12.8,102.4C12.8,158.72,104.96,204.8,217.6,204.8
		 M143.36,427.52l-7.68-17.92l7.68-17.92c2.56-5.12,5.12-7.68,5.12-12.8C69.12,363.52,12.8,327.68,12.8,281.6v76.8
		c0,46.08,61.44,84.48,145.92,97.28C153.6,448,148.48,437.76,143.36,427.52 M345.6,384c-15.36,0-25.6,10.24-25.6,25.6
		s10.24,25.6,25.6,25.6c15.36,0,25.6-10.24,25.6-25.6S360.96,384,345.6,384 M499.2,409.6C476.16,468.48,414.72,512,345.6,512
		S215.04,468.48,192,409.6c23.04-58.88,84.48-102.4,153.6-102.4S476.16,350.72,499.2,409.6 M409.6,409.6c0-35.84-28.16-64-64-64
		s-64,28.16-64,64s28.16,64,64,64S409.6,445.44,409.6,409.6z"/>
</g>
</svg>
